<svg xmlns="http://www.w3.org/2000/svg" viewBox="0 0 1200 800" width="1200" height="800" role="img">
<defs>
<linearGradient id="sky" x1="0" y1="0" x2="0" y2="1"><stop offset="0" stop-color="#d3dbd6"/><stop offset="0.62" stop-color="#f4f1e8"/><stop offset="1" stop-color="#f4f1e8"/></linearGradient>
<radialGradient id="glow" cx="50%" cy="50%" r="50%"><stop offset="0" stop-color="#e8d7ae" stop-opacity="0.95"/><stop offset="0.45" stop-color="#e8d7ae" stop-opacity="0.32"/><stop offset="1" stop-color="#e8d7ae" stop-opacity="0"/></radialGradient>
<linearGradient id="haze" x1="0" y1="0" x2="0" y2="1"><stop offset="0" stop-color="#f4f1e8" stop-opacity="0"/><stop offset="1" stop-color="#f4f1e8" stop-opacity="0.78"/></linearGradient>
<linearGradient id="street" x1="0" y1="0" x2="0" y2="1"><stop offset="0" stop-color="#8b8f86"/><stop offset="1" stop-color="#57635a" stop-opacity="0.9"/></linearGradient>
<radialGradient id="vig" cx="50%" cy="46%" r="72%"><stop offset="0.55" stop-color="#16181a" stop-opacity="0"/><stop offset="1" stop-color="#16181a" stop-opacity="0.24"/></radialGradient>
<linearGradient id="warm" x1="0" y1="0" x2="1" y2="0.4"><stop offset="0" stop-color="#e8d7ae" stop-opacity="0.18"/><stop offset="1" stop-color="#e8d7ae" stop-opacity="0"/></linearGradient>
</defs>
<rect width="1200" height="800" fill="url(#sky)"/>
<circle cx="794" cy="200" r="300" fill="url(#glow)"/>
<circle cx="794" cy="200" r="52" fill="#e8d7ae" opacity="0.85"/>
<rect x="100" y="265" width="242" height="385" fill="#a5afa5"/><rect x="92" y="245" width="258" height="22" fill="#57635a" opacity="0.85"/><path d="M142 391 v-40 a31 31 0 0 1 62 0 v40 z" fill="#f9f6ea" opacity="0.93"/><path d="M238 391 v-40 a31 31 0 0 1 62 0 v40 z" fill="#f9f6ea" opacity="0.75"/><path d="M142 483 v-40 a31 31 0 0 1 62 0 v40 z" fill="#f9f6ea" opacity="0.71"/><path d="M238 483 v-40 a31 31 0 0 1 62 0 v40 z" fill="#f9f6ea" opacity="0.74"/><path d="M142 575 v-40 a31 31 0 0 1 62 0 v40 z" fill="#f9f6ea" opacity="0.75"/><path d="M238 575 v-40 a31 31 0 0 1 62 0 v40 z" fill="#f9f6ea" opacity="0.81"/><path d="M142 667 v-40 a31 31 0 0 1 62 0 v40 z" fill="#f9f6ea" opacity="0.72"/><path d="M238 667 v-40 a31 31 0 0 1 62 0 v40 z" fill="#f9f6ea" opacity="0.68"/><rect x="188" y="586" width="70" height="64" rx="34" fill="#57635a"/><path d="M174 650 L272 650 L258 682 L188 682 Z" fill="#8b8f86" opacity="0.9"/><rect x="350" y="271" width="242" height="379" fill="#78857a"/><rect x="342" y="251" width="258" height="22" fill="#57635a" opacity="0.85"/><path d="M392 397 v-40 a31 31 0 0 1 62 0 v40 z" fill="#f9f6ea" opacity="0.80"/><path d="M488 397 v-40 a31 31 0 0 1 62 0 v40 z" fill="#f9f6ea" opacity="0.82"/><path d="M392 489 v-40 a31 31 0 0 1 62 0 v40 z" fill="#f9f6ea" opacity="0.88"/><path d="M488 489 v-40 a31 31 0 0 1 62 0 v40 z" fill="#f9f6ea" opacity="0.68"/><path d="M392 581 v-40 a31 31 0 0 1 62 0 v40 z" fill="#f9f6ea" opacity="0.80"/><path d="M488 581 v-40 a31 31 0 0 1 62 0 v40 z" fill="#f9f6ea" opacity="0.73"/><path d="M392 673 v-40 a31 31 0 0 1 62 0 v40 z" fill="#f9f6ea" opacity="0.67"/><path d="M488 673 v-40 a31 31 0 0 1 62 0 v40 z" fill="#f9f6ea" opacity="0.89"/><rect x="438" y="586" width="70" height="64" rx="34" fill="#57635a"/><path d="M424 650 L522 650 L508 682 L438 682 Z" fill="#8b8f86" opacity="0.9"/><rect x="600" y="250" width="242" height="400" fill="#57635a"/><rect x="592" y="230" width="258" height="22" fill="#57635a" opacity="0.85"/><path d="M642 376 v-40 a31 31 0 0 1 62 0 v40 z" fill="#f9f6ea" opacity="0.88"/><path d="M738 376 v-40 a31 31 0 0 1 62 0 v40 z" fill="#f9f6ea" opacity="0.87"/><path d="M642 468 v-40 a31 31 0 0 1 62 0 v40 z" fill="#f9f6ea" opacity="0.68"/><path d="M738 468 v-40 a31 31 0 0 1 62 0 v40 z" fill="#f9f6ea" opacity="0.82"/><path d="M642 560 v-40 a31 31 0 0 1 62 0 v40 z" fill="#f9f6ea" opacity="0.70"/><path d="M738 560 v-40 a31 31 0 0 1 62 0 v40 z" fill="#f9f6ea" opacity="0.75"/><path d="M642 652 v-40 a31 31 0 0 1 62 0 v40 z" fill="#f9f6ea" opacity="0.69"/><path d="M738 652 v-40 a31 31 0 0 1 62 0 v40 z" fill="#f9f6ea" opacity="0.80"/><rect x="688" y="586" width="70" height="64" rx="34" fill="#57635a"/><path d="M674 650 L772 650 L758 682 L688 682 Z" fill="#8b8f86" opacity="0.9"/><rect x="850" y="270" width="242" height="380" fill="#a5afa5"/><rect x="842" y="250" width="258" height="22" fill="#57635a" opacity="0.85"/><path d="M892 396 v-40 a31 31 0 0 1 62 0 v40 z" fill="#f9f6ea" opacity="0.84"/><path d="M988 396 v-40 a31 31 0 0 1 62 0 v40 z" fill="#f9f6ea" opacity="0.93"/><path d="M892 488 v-40 a31 31 0 0 1 62 0 v40 z" fill="#f9f6ea" opacity="0.89"/><path d="M988 488 v-40 a31 31 0 0 1 62 0 v40 z" fill="#f9f6ea" opacity="0.79"/><path d="M892 580 v-40 a31 31 0 0 1 62 0 v40 z" fill="#f9f6ea" opacity="0.73"/><path d="M988 580 v-40 a31 31 0 0 1 62 0 v40 z" fill="#f9f6ea" opacity="0.77"/><path d="M892 672 v-40 a31 31 0 0 1 62 0 v40 z" fill="#f9f6ea" opacity="0.75"/><path d="M988 672 v-40 a31 31 0 0 1 62 0 v40 z" fill="#f9f6ea" opacity="0.76"/><rect x="938" y="586" width="70" height="64" rx="34" fill="#57635a"/><path d="M924 650 L1022 650 L1008 682 L938 682 Z" fill="#8b8f86" opacity="0.9"/>
<rect x="0" y="440" width="1200" height="210" fill="url(#haze)" opacity="0.34"/>
<rect x="0" y="650" width="1200" height="150" fill="url(#street)"/>
<rect x="0" y="650" width="1200" height="7" fill="#f9f6ea" opacity="0.28"/>
<rect x="0" y="728" width="1200" height="2" fill="#f9f6ea" opacity="0.16"/>
<path d="M0 800 L0 172 L154 208 L107 800 Z" fill="#57635a" opacity="0.5"/>
<rect width="1200" height="800" fill="url(#warm)"/>
<rect width="1200" height="800" fill="url(#vig)"/>
</svg>