<svg xmlns="http://www.w3.org/2000/svg" viewBox="0 0 1200 800" width="1200" height="800" role="img">
<defs>
<linearGradient id="sky" x1="0" y1="0" x2="0" y2="1"><stop offset="0" stop-color="#d3dbd6"/><stop offset="0.62" stop-color="#f4f1e8"/><stop offset="1" stop-color="#f4f1e8"/></linearGradient>
<radialGradient id="glow" cx="50%" cy="50%" r="50%"><stop offset="0" stop-color="#e8d7ae" stop-opacity="0.95"/><stop offset="0.45" stop-color="#e8d7ae" stop-opacity="0.32"/><stop offset="1" stop-color="#e8d7ae" stop-opacity="0"/></radialGradient>
<linearGradient id="haze" x1="0" y1="0" x2="0" y2="1"><stop offset="0" stop-color="#f4f1e8" stop-opacity="0"/><stop offset="1" stop-color="#f4f1e8" stop-opacity="0.78"/></linearGradient>
<linearGradient id="street" x1="0" y1="0" x2="0" y2="1"><stop offset="0" stop-color="#8b8f86"/><stop offset="1" stop-color="#57635a" stop-opacity="0.9"/></linearGradient>
<radialGradient id="vig" cx="50%" cy="46%" r="72%"><stop offset="0.55" stop-color="#16181a" stop-opacity="0"/><stop offset="1" stop-color="#16181a" stop-opacity="0.24"/></radialGradient>
<linearGradient id="warm" x1="0" y1="0" x2="1" y2="0.4"><stop offset="0" stop-color="#e8d7ae" stop-opacity="0.18"/><stop offset="1" stop-color="#e8d7ae" stop-opacity="0"/></linearGradient>
</defs>
<rect width="1200" height="800" fill="url(#sky)"/>
<circle cx="371" cy="141" r="300" fill="url(#glow)"/>
<circle cx="371" cy="141" r="52" fill="#e8d7ae" opacity="0.85"/>
<rect x="0" y="600" width="1200" height="200" fill="#c9d1ca" opacity="0.55"/><rect x="285" y="664" width="122" height="3" rx="2" fill="#f9f6ea" opacity="0.5"/><rect x="171" y="766" width="137" height="3" rx="2" fill="#f9f6ea" opacity="0.5"/><rect x="495" y="639" width="87" height="3" rx="2" fill="#f9f6ea" opacity="0.5"/><rect x="747" y="687" width="68" height="3" rx="2" fill="#f9f6ea" opacity="0.5"/><rect x="748" y="700" width="138" height="3" rx="2" fill="#f9f6ea" opacity="0.5"/><rect x="874" y="678" width="52" height="3" rx="2" fill="#f9f6ea" opacity="0.5"/><rect x="361" y="670" width="94" height="3" rx="2" fill="#f9f6ea" opacity="0.5"/><rect x="844" y="704" width="96" height="3" rx="2" fill="#f9f6ea" opacity="0.5"/><rect x="907" y="671" width="58" height="3" rx="2" fill="#f9f6ea" opacity="0.5"/><rect x="849" y="752" width="130" height="3" rx="2" fill="#f9f6ea" opacity="0.5"/><rect x="107" y="695" width="136" height="3" rx="2" fill="#f9f6ea" opacity="0.5"/><rect x="1028" y="778" width="93" height="3" rx="2" fill="#f9f6ea" opacity="0.5"/><rect x="419" y="734" width="111" height="3" rx="2" fill="#f9f6ea" opacity="0.5"/><rect x="908" y="696" width="132" height="3" rx="2" fill="#f9f6ea" opacity="0.5"/><rect x="600" y="665" width="102" height="3" rx="2" fill="#f9f6ea" opacity="0.5"/><rect x="1007" y="703" width="94" height="3" rx="2" fill="#f9f6ea" opacity="0.5"/><rect x="240" y="500" width="720" height="120" fill="#78857a"/><rect x="330" y="370" width="460" height="132" fill="#a5afa5"/><rect x="256" y="522" width="688" height="76" fill="#f9f6ea" opacity="0.82"/><rect x="348" y="392" width="424" height="88" fill="#f9f6ea" opacity="0.7"/><rect x="354.2857142857143" y="522" width="7" height="76" fill="#57635a"/><rect x="452.57142857142856" y="522" width="7" height="76" fill="#57635a"/><rect x="550.8571428571429" y="522" width="7" height="76" fill="#57635a"/><rect x="649.1428571428571" y="522" width="7" height="76" fill="#57635a"/><rect x="747.4285714285714" y="522" width="7" height="76" fill="#57635a"/><rect x="845.7142857142858" y="522" width="7" height="76" fill="#57635a"/><rect x="200" y="618" width="800" height="14" fill="#57635a"/>
<rect x="0" y="440" width="1200" height="210" fill="url(#haze)" opacity="0.34"/>
<rect x="0" y="650" width="1200" height="150" fill="url(#street)"/>
<rect x="0" y="650" width="1200" height="7" fill="#f9f6ea" opacity="0.28"/>
<rect x="0" y="728" width="1200" height="2" fill="#f9f6ea" opacity="0.16"/>
<path d="M0 800 L0 77 L123 251 L139 800 Z" fill="#57635a" opacity="0.5"/>
<rect width="1200" height="800" fill="url(#warm)"/>
<rect width="1200" height="800" fill="url(#vig)"/>
</svg>