<svg xmlns="http://www.w3.org/2000/svg" viewBox="0 0 2400 1200" width="2400" height="1200">
<defs>
<linearGradient id="s" x1="0" y1="0" x2="0" y2="1">
<stop offset="0" stop-color="#1b2a2b"/><stop offset="0.45" stop-color="#3d4a44"/>
<stop offset="0.78" stop-color="#7d7a68"/><stop offset="1" stop-color="#c9a279"/></linearGradient>
<radialGradient id="sun" cx="50%" cy="50%" r="50%"><stop offset="0" stop-color="#f4c98d" stop-opacity="0.9"/><stop offset="1" stop-color="#f4c98d" stop-opacity="0"/></radialGradient>
<linearGradient id="haze2" x1="0" y1="0" x2="0" y2="1"><stop offset="0" stop-color="#7d7a68" stop-opacity="0"/><stop offset="1" stop-color="#c9a279" stop-opacity="0.6"/></linearGradient>
<linearGradient id="wtr" x1="0" y1="0" x2="0" y2="1"><stop offset="0" stop-color="#2b3735"/><stop offset="1" stop-color="#161f1e"/></linearGradient>
</defs>
<rect width="2400" height="1200" fill="url(#s)"/>
<circle cx="1560" cy="930" r="520" fill="url(#sun)"/>
<circle cx="1560" cy="930" r="72" fill="#f6d6a4" opacity="0.9"/>
<rect x="-80" y="684" width="190" height="526" fill="#26332f" opacity="0.55"/><rect x="17" y="807" width="92" height="403" fill="#26332f" opacity="0.55"/><rect x="158" y="856" width="158" height="354" fill="#26332f" opacity="0.55"/><rect x="293" y="798" width="95" height="412" fill="#26332f" opacity="0.55"/><rect x="436" y="663" width="103" height="547" fill="#26332f" opacity="0.55"/><rect x="571" y="732" width="166" height="478" fill="#26332f" opacity="0.55"/><rect x="677" y="827" width="174" height="383" fill="#26332f" opacity="0.55"/><rect x="813" y="775" width="164" height="435" fill="#26332f" opacity="0.55"/><rect x="939" y="762" width="137" height="448" fill="#26332f" opacity="0.55"/><rect x="1039" y="758" width="182" height="452" fill="#26332f" opacity="0.55"/><rect x="1167" y="806" width="102" height="404" fill="#26332f" opacity="0.55"/><rect x="1289" y="812" width="107" height="398" fill="#26332f" opacity="0.55"/><rect x="1433" y="861" width="95" height="349" fill="#26332f" opacity="0.55"/><rect x="1571" y="639" width="154" height="571" fill="#26332f" opacity="0.55"/><rect x="1708" y="833" width="108" height="377" fill="#26332f" opacity="0.55"/><rect x="1812" y="623" width="155" height="587" fill="#26332f" opacity="0.55"/><rect x="1909" y="761" width="157" height="449" fill="#26332f" opacity="0.55"/><rect x="2031" y="749" width="179" height="461" fill="#26332f" opacity="0.55"/><rect x="2155" y="624" width="97" height="586" fill="#26332f" opacity="0.55"/><rect x="2301" y="823" width="178" height="387" fill="#26332f" opacity="0.55"/><rect x="2410" y="834" width="152" height="376" fill="#26332f" opacity="0.55"/><rect x="-80" y="534" width="94" height="676" fill="#1d2926" opacity="0.78"/><rect x="102" y="420" width="139" height="790" fill="#1d2926" opacity="0.78"/><rect x="266" y="534" width="98" height="676" fill="#1d2926" opacity="0.78"/><rect x="440" y="535" width="91" height="675" fill="#1d2926" opacity="0.78"/><rect x="593" y="537" width="161" height="673" fill="#1d2926" opacity="0.78"/><rect x="738" y="393" width="112" height="817" fill="#1d2926" opacity="0.78"/><rect x="913" y="527" width="96" height="683" fill="#1d2926" opacity="0.78"/><rect x="1099" y="633" width="213" height="577" fill="#1d2926" opacity="0.78"/><rect x="1248" y="444" width="187" height="766" fill="#1d2926" opacity="0.78"/><rect x="1379" y="383" width="106" height="827" fill="#1d2926" opacity="0.78"/><rect x="1540" y="684" width="121" height="526" fill="#1d2926" opacity="0.78"/><rect x="1728" y="424" width="86" height="786" fill="#1d2926" opacity="0.78"/><rect x="1910" y="692" width="116" height="518" fill="#1d2926" opacity="0.78"/><rect x="2087" y="688" width="211" height="522" fill="#1d2926" opacity="0.78"/><rect x="2228" y="731" width="176" height="479" fill="#1d2926" opacity="0.78"/><rect x="2378" y="496" width="202" height="714" fill="#1d2926" opacity="0.78"/><rect x="-80" y="249" width="243" height="961" fill="#141d1b" opacity="1"/><rect x="-68" y="265" width="12" height="16" fill="#e8c89a" opacity="0.41"/><rect x="-68" y="354" width="12" height="16" fill="#e8c89a" opacity="0.57"/><rect x="-68" y="442" width="12" height="16" fill="#e8c89a" opacity="0.35"/><rect x="-68" y="487" width="12" height="16" fill="#e8c89a" opacity="0.43"/><rect x="-68" y="708" width="12" height="16" fill="#e8c89a" opacity="0.49"/><rect x="-68" y="752" width="12" height="16" fill="#e8c89a" opacity="0.33"/><rect x="-68" y="797" width="12" height="16" fill="#e8c89a" opacity="0.44"/><rect x="-68" y="841" width="12" height="16" fill="#e8c89a" opacity="0.73"/><rect x="-24" y="354" width="12" height="16" fill="#e8c89a" opacity="0.55"/><rect x="-24" y="531" width="12" height="16" fill="#e8c89a" opacity="0.82"/><rect x="-24" y="575" width="12" height="16" fill="#e8c89a" opacity="0.57"/><rect x="-24" y="664" width="12" height="16" fill="#e8c89a" opacity="0.52"/><rect x="-24" y="708" width="12" height="16" fill="#e8c89a" opacity="0.58"/><rect x="-24" y="797" width="12" height="16" fill="#e8c89a" opacity="0.37"/><rect x="-24" y="885" width="12" height="16" fill="#e8c89a" opacity="0.28"/><rect x="-24" y="930" width="12" height="16" fill="#e8c89a" opacity="0.41"/><rect x="20" y="309" width="12" height="16" fill="#e8c89a" opacity="0.27"/><rect x="20" y="487" width="12" height="16" fill="#e8c89a" opacity="0.55"/><rect x="20" y="620" width="12" height="16" fill="#e8c89a" opacity="0.62"/><rect x="20" y="708" width="12" height="16" fill="#e8c89a" opacity="0.35"/><rect x="20" y="752" width="12" height="16" fill="#e8c89a" opacity="0.62"/><rect x="20" y="797" width="12" height="16" fill="#e8c89a" opacity="0.27"/><rect x="20" y="841" width="12" height="16" fill="#e8c89a" opacity="0.46"/><rect x="63" y="265" width="12" height="16" fill="#e8c89a" opacity="0.53"/><rect x="63" y="309" width="12" height="16" fill="#e8c89a" opacity="0.62"/><rect x="63" y="354" width="12" height="16" fill="#e8c89a" opacity="0.37"/><rect x="63" y="442" width="12" height="16" fill="#e8c89a" opacity="0.28"/><rect x="63" y="575" width="12" height="16" fill="#e8c89a" opacity="0.65"/><rect x="63" y="620" width="12" height="16" fill="#e8c89a" opacity="0.51"/><rect x="63" y="708" width="12" height="16" fill="#e8c89a" opacity="0.65"/><rect x="63" y="752" width="12" height="16" fill="#e8c89a" opacity="0.43"/><rect x="63" y="841" width="12" height="16" fill="#e8c89a" opacity="0.28"/><rect x="63" y="930" width="12" height="16" fill="#e8c89a" opacity="0.58"/><rect x="107" y="265" width="12" height="16" fill="#e8c89a" opacity="0.32"/><rect x="107" y="354" width="12" height="16" fill="#e8c89a" opacity="0.32"/><rect x="107" y="442" width="12" height="16" fill="#e8c89a" opacity="0.75"/><rect x="107" y="531" width="12" height="16" fill="#e8c89a" opacity="0.61"/><rect x="107" y="575" width="12" height="16" fill="#e8c89a" opacity="0.79"/><rect x="107" y="664" width="12" height="16" fill="#e8c89a" opacity="0.69"/><rect x="107" y="708" width="12" height="16" fill="#e8c89a" opacity="0.79"/><rect x="107" y="885" width="12" height="16" fill="#e8c89a" opacity="0.35"/><rect x="107" y="930" width="12" height="16" fill="#e8c89a" opacity="0.68"/><rect x="128" y="351" width="222" height="859" fill="#141d1b" opacity="1"/><rect x="140" y="367" width="12" height="16" fill="#e8c89a" opacity="0.80"/><rect x="140" y="410" width="12" height="16" fill="#e8c89a" opacity="0.32"/><rect x="140" y="454" width="12" height="16" fill="#e8c89a" opacity="0.80"/><rect x="140" y="497" width="12" height="16" fill="#e8c89a" opacity="0.28"/><rect x="140" y="671" width="12" height="16" fill="#e8c89a" opacity="0.76"/><rect x="140" y="714" width="12" height="16" fill="#e8c89a" opacity="0.27"/><rect x="140" y="801" width="12" height="16" fill="#e8c89a" opacity="0.34"/><rect x="180" y="410" width="12" height="16" fill="#e8c89a" opacity="0.62"/><rect x="180" y="454" width="12" height="16" fill="#e8c89a" opacity="0.28"/><rect x="180" y="497" width="12" height="16" fill="#e8c89a" opacity="0.52"/><rect x="180" y="540" width="12" height="16" fill="#e8c89a" opacity="0.30"/><rect x="180" y="757" width="12" height="16" fill="#e8c89a" opacity="0.71"/><rect x="180" y="844" width="12" height="16" fill="#e8c89a" opacity="0.48"/><rect x="219" y="367" width="12" height="16" fill="#e8c89a" opacity="0.34"/><rect x="219" y="454" width="12" height="16" fill="#e8c89a" opacity="0.72"/><rect x="219" y="497" width="12" height="16" fill="#e8c89a" opacity="0.30"/><rect x="219" y="584" width="12" height="16" fill="#e8c89a" opacity="0.50"/><rect x="219" y="627" width="12" height="16" fill="#e8c89a" opacity="0.45"/><rect x="219" y="671" width="12" height="16" fill="#e8c89a" opacity="0.80"/><rect x="219" y="714" width="12" height="16" fill="#e8c89a" opacity="0.44"/><rect x="259" y="454" width="12" height="16" fill="#e8c89a" opacity="0.60"/><rect x="259" y="540" width="12" height="16" fill="#e8c89a" opacity="0.78"/><rect x="259" y="757" width="12" height="16" fill="#e8c89a" opacity="0.51"/><rect x="259" y="801" width="12" height="16" fill="#e8c89a" opacity="0.48"/><rect x="259" y="844" width="12" height="16" fill="#e8c89a" opacity="0.81"/><rect x="259" y="887" width="12" height="16" fill="#e8c89a" opacity="0.81"/><rect x="259" y="931" width="12" height="16" fill="#e8c89a" opacity="0.84"/><rect x="298" y="367" width="12" height="16" fill="#e8c89a" opacity="0.84"/><rect x="298" y="497" width="12" height="16" fill="#e8c89a" opacity="0.36"/><rect x="298" y="584" width="12" height="16" fill="#e8c89a" opacity="0.39"/><rect x="298" y="627" width="12" height="16" fill="#e8c89a" opacity="0.65"/><rect x="298" y="671" width="12" height="16" fill="#e8c89a" opacity="0.66"/><rect x="298" y="801" width="12" height="16" fill="#e8c89a" opacity="0.49"/><rect x="298" y="844" width="12" height="16" fill="#e8c89a" opacity="0.40"/><rect x="298" y="887" width="12" height="16" fill="#e8c89a" opacity="0.31"/><rect x="336" y="411" width="228" height="799" fill="#141d1b" opacity="1"/><rect x="348" y="511" width="12" height="16" fill="#e8c89a" opacity="0.44"/><rect x="348" y="679" width="12" height="16" fill="#e8c89a" opacity="0.47"/><rect x="348" y="722" width="12" height="16" fill="#e8c89a" opacity="0.69"/><rect x="348" y="764" width="12" height="16" fill="#e8c89a" opacity="0.42"/><rect x="348" y="806" width="12" height="16" fill="#e8c89a" opacity="0.48"/><rect x="348" y="890" width="12" height="16" fill="#e8c89a" opacity="0.37"/><rect x="348" y="932" width="12" height="16" fill="#e8c89a" opacity="0.83"/><rect x="389" y="427" width="12" height="16" fill="#e8c89a" opacity="0.72"/><rect x="389" y="511" width="12" height="16" fill="#e8c89a" opacity="0.58"/><rect x="389" y="553" width="12" height="16" fill="#e8c89a" opacity="0.72"/><rect x="389" y="679" width="12" height="16" fill="#e8c89a" opacity="0.42"/><rect x="389" y="722" width="12" height="16" fill="#e8c89a" opacity="0.76"/><rect x="389" y="806" width="12" height="16" fill="#e8c89a" opacity="0.51"/><rect x="389" y="890" width="12" height="16" fill="#e8c89a" opacity="0.27"/><rect x="430" y="469" width="12" height="16" fill="#e8c89a" opacity="0.46"/><rect x="430" y="595" width="12" height="16" fill="#e8c89a" opacity="0.55"/><rect x="430" y="637" width="12" height="16" fill="#e8c89a" opacity="0.77"/><rect x="430" y="764" width="12" height="16" fill="#e8c89a" opacity="0.49"/><rect x="430" y="806" width="12" height="16" fill="#e8c89a" opacity="0.85"/><rect x="430" y="932" width="12" height="16" fill="#e8c89a" opacity="0.70"/><rect x="470" y="427" width="12" height="16" fill="#e8c89a" opacity="0.50"/><rect x="470" y="469" width="12" height="16" fill="#e8c89a" opacity="0.78"/><rect x="470" y="595" width="12" height="16" fill="#e8c89a" opacity="0.84"/><rect x="470" y="722" width="12" height="16" fill="#e8c89a" opacity="0.76"/><rect x="470" y="764" width="12" height="16" fill="#e8c89a" opacity="0.26"/><rect x="470" y="806" width="12" height="16" fill="#e8c89a" opacity="0.72"/><rect x="470" y="848" width="12" height="16" fill="#e8c89a" opacity="0.72"/><rect x="470" y="890" width="12" height="16" fill="#e8c89a" opacity="0.31"/><rect x="511" y="469" width="12" height="16" fill="#e8c89a" opacity="0.78"/><rect x="511" y="595" width="12" height="16" fill="#e8c89a" opacity="0.46"/><rect x="511" y="679" width="12" height="16" fill="#e8c89a" opacity="0.84"/><rect x="511" y="722" width="12" height="16" fill="#e8c89a" opacity="0.43"/><rect x="511" y="806" width="12" height="16" fill="#e8c89a" opacity="0.73"/><rect x="511" y="890" width="12" height="16" fill="#e8c89a" opacity="0.53"/><rect x="559" y="276" width="175" height="934" fill="#141d1b" opacity="1"/><rect x="571" y="377" width="12" height="16" fill="#e8c89a" opacity="0.43"/><rect x="571" y="420" width="12" height="16" fill="#e8c89a" opacity="0.56"/><rect x="571" y="505" width="12" height="16" fill="#e8c89a" opacity="0.57"/><rect x="571" y="590" width="12" height="16" fill="#e8c89a" opacity="0.49"/><rect x="571" y="676" width="12" height="16" fill="#e8c89a" opacity="0.71"/><rect x="571" y="761" width="12" height="16" fill="#e8c89a" opacity="0.82"/><rect x="571" y="889" width="12" height="16" fill="#e8c89a" opacity="0.43"/><rect x="609" y="335" width="12" height="16" fill="#e8c89a" opacity="0.55"/><rect x="609" y="463" width="12" height="16" fill="#e8c89a" opacity="0.41"/><rect x="609" y="505" width="12" height="16" fill="#e8c89a" opacity="0.56"/><rect x="609" y="548" width="12" height="16" fill="#e8c89a" opacity="0.45"/><rect x="609" y="633" width="12" height="16" fill="#e8c89a" opacity="0.60"/><rect x="609" y="676" width="12" height="16" fill="#e8c89a" opacity="0.69"/><rect x="609" y="761" width="12" height="16" fill="#e8c89a" opacity="0.43"/><rect x="609" y="889" width="12" height="16" fill="#e8c89a" opacity="0.29"/><rect x="647" y="292" width="12" height="16" fill="#e8c89a" opacity="0.34"/><rect x="647" y="377" width="12" height="16" fill="#e8c89a" opacity="0.29"/><rect x="647" y="931" width="12" height="16" fill="#e8c89a" opacity="0.50"/><rect x="684" y="335" width="12" height="16" fill="#e8c89a" opacity="0.66"/><rect x="684" y="463" width="12" height="16" fill="#e8c89a" opacity="0.54"/><rect x="684" y="633" width="12" height="16" fill="#e8c89a" opacity="0.31"/><rect x="684" y="846" width="12" height="16" fill="#e8c89a" opacity="0.32"/><rect x="717" y="485" width="212" height="725" fill="#141d1b" opacity="1"/><rect x="729" y="501" width="12" height="16" fill="#e8c89a" opacity="0.35"/><rect x="729" y="673" width="12" height="16" fill="#e8c89a" opacity="0.68"/><rect x="729" y="716" width="12" height="16" fill="#e8c89a" opacity="0.30"/><rect x="767" y="544" width="12" height="16" fill="#e8c89a" opacity="0.45"/><rect x="804" y="501" width="12" height="16" fill="#e8c89a" opacity="0.68"/><rect x="804" y="716" width="12" height="16" fill="#e8c89a" opacity="0.70"/><rect x="842" y="501" width="12" height="16" fill="#e8c89a" opacity="0.49"/><rect x="842" y="587" width="12" height="16" fill="#e8c89a" opacity="0.78"/><rect x="842" y="716" width="12" height="16" fill="#e8c89a" opacity="0.75"/><rect x="842" y="759" width="12" height="16" fill="#e8c89a" opacity="0.58"/><rect x="842" y="845" width="12" height="16" fill="#e8c89a" opacity="0.84"/><rect x="879" y="501" width="12" height="16" fill="#e8c89a" opacity="0.72"/><rect x="879" y="587" width="12" height="16" fill="#e8c89a" opacity="0.85"/><rect x="879" y="673" width="12" height="16" fill="#e8c89a" opacity="0.49"/><rect x="879" y="759" width="12" height="16" fill="#e8c89a" opacity="0.35"/><rect x="879" y="845" width="12" height="16" fill="#e8c89a" opacity="0.63"/><rect x="879" y="931" width="12" height="16" fill="#e8c89a" opacity="0.82"/><rect x="889" y="281" width="156" height="929" fill="#141d1b" opacity="1"/><rect x="901" y="297" width="12" height="16" fill="#e8c89a" opacity="0.82"/><rect x="901" y="387" width="12" height="16" fill="#e8c89a" opacity="0.60"/><rect x="901" y="478" width="12" height="16" fill="#e8c89a" opacity="0.72"/><rect x="901" y="523" width="12" height="16" fill="#e8c89a" opacity="0.67"/><rect x="901" y="568" width="12" height="16" fill="#e8c89a" opacity="0.76"/><rect x="901" y="658" width="12" height="16" fill="#e8c89a" opacity="0.32"/><rect x="901" y="703" width="12" height="16" fill="#e8c89a" opacity="0.30"/><rect x="901" y="793" width="12" height="16" fill="#e8c89a" opacity="0.35"/><rect x="901" y="884" width="12" height="16" fill="#e8c89a" opacity="0.56"/><rect x="901" y="929" width="12" height="16" fill="#e8c89a" opacity="0.76"/><rect x="945" y="478" width="12" height="16" fill="#e8c89a" opacity="0.33"/><rect x="945" y="568" width="12" height="16" fill="#e8c89a" opacity="0.49"/><rect x="945" y="613" width="12" height="16" fill="#e8c89a" opacity="0.55"/><rect x="945" y="703" width="12" height="16" fill="#e8c89a" opacity="0.39"/><rect x="945" y="793" width="12" height="16" fill="#e8c89a" opacity="0.60"/><rect x="945" y="839" width="12" height="16" fill="#e8c89a" opacity="0.26"/><rect x="945" y="884" width="12" height="16" fill="#e8c89a" opacity="0.49"/><rect x="989" y="342" width="12" height="16" fill="#e8c89a" opacity="0.54"/><rect x="989" y="432" width="12" height="16" fill="#e8c89a" opacity="0.77"/><rect x="989" y="523" width="12" height="16" fill="#e8c89a" opacity="0.57"/><rect x="989" y="568" width="12" height="16" fill="#e8c89a" opacity="0.43"/><rect x="989" y="613" width="12" height="16" fill="#e8c89a" opacity="0.30"/><rect x="989" y="703" width="12" height="16" fill="#e8c89a" opacity="0.62"/><rect x="989" y="793" width="12" height="16" fill="#e8c89a" opacity="0.40"/><rect x="989" y="839" width="12" height="16" fill="#e8c89a" opacity="0.76"/><rect x="1136" y="487" width="219" height="723" fill="#141d1b" opacity="1"/><rect x="1148" y="503" width="12" height="16" fill="#e8c89a" opacity="0.78"/><rect x="1187" y="503" width="12" height="16" fill="#e8c89a" opacity="0.38"/><rect x="1187" y="546" width="12" height="16" fill="#e8c89a" opacity="0.42"/><rect x="1187" y="717" width="12" height="16" fill="#e8c89a" opacity="0.71"/><rect x="1187" y="803" width="12" height="16" fill="#e8c89a" opacity="0.43"/><rect x="1226" y="546" width="12" height="16" fill="#e8c89a" opacity="0.32"/><rect x="1226" y="589" width="12" height="16" fill="#e8c89a" opacity="0.67"/><rect x="1226" y="760" width="12" height="16" fill="#e8c89a" opacity="0.29"/><rect x="1226" y="846" width="12" height="16" fill="#e8c89a" opacity="0.63"/><rect x="1226" y="931" width="12" height="16" fill="#e8c89a" opacity="0.51"/><rect x="1265" y="589" width="12" height="16" fill="#e8c89a" opacity="0.37"/><rect x="1265" y="760" width="12" height="16" fill="#e8c89a" opacity="0.37"/><rect x="1265" y="846" width="12" height="16" fill="#e8c89a" opacity="0.46"/><rect x="1304" y="546" width="12" height="16" fill="#e8c89a" opacity="0.44"/><rect x="1304" y="589" width="12" height="16" fill="#e8c89a" opacity="0.66"/><rect x="1304" y="674" width="12" height="16" fill="#e8c89a" opacity="0.29"/><rect x="1304" y="717" width="12" height="16" fill="#e8c89a" opacity="0.84"/><rect x="1304" y="760" width="12" height="16" fill="#e8c89a" opacity="0.58"/><rect x="1304" y="803" width="12" height="16" fill="#e8c89a" opacity="0.62"/><rect x="1304" y="931" width="12" height="16" fill="#e8c89a" opacity="0.42"/><rect x="1343" y="224" width="226" height="986" fill="#141d1b" opacity="1"/><rect x="1355" y="326" width="12" height="16" fill="#e8c89a" opacity="0.46"/><rect x="1355" y="370" width="12" height="16" fill="#e8c89a" opacity="0.59"/><rect x="1355" y="456" width="12" height="16" fill="#e8c89a" opacity="0.59"/><rect x="1355" y="499" width="12" height="16" fill="#e8c89a" opacity="0.70"/><rect x="1355" y="629" width="12" height="16" fill="#e8c89a" opacity="0.74"/><rect x="1355" y="758" width="12" height="16" fill="#e8c89a" opacity="0.43"/><rect x="1355" y="844" width="12" height="16" fill="#e8c89a" opacity="0.38"/><rect x="1395" y="326" width="12" height="16" fill="#e8c89a" opacity="0.75"/><rect x="1395" y="413" width="12" height="16" fill="#e8c89a" opacity="0.35"/><rect x="1395" y="499" width="12" height="16" fill="#e8c89a" opacity="0.47"/><rect x="1395" y="542" width="12" height="16" fill="#e8c89a" opacity="0.28"/><rect x="1395" y="585" width="12" height="16" fill="#e8c89a" opacity="0.30"/><rect x="1395" y="672" width="12" height="16" fill="#e8c89a" opacity="0.29"/><rect x="1395" y="801" width="12" height="16" fill="#e8c89a" opacity="0.26"/><rect x="1436" y="326" width="12" height="16" fill="#e8c89a" opacity="0.64"/><rect x="1436" y="413" width="12" height="16" fill="#e8c89a" opacity="0.79"/><rect x="1436" y="499" width="12" height="16" fill="#e8c89a" opacity="0.66"/><rect x="1436" y="629" width="12" height="16" fill="#e8c89a" opacity="0.71"/><rect x="1476" y="240" width="12" height="16" fill="#e8c89a" opacity="0.26"/><rect x="1476" y="370" width="12" height="16" fill="#e8c89a" opacity="0.81"/><rect x="1476" y="413" width="12" height="16" fill="#e8c89a" opacity="0.31"/><rect x="1476" y="456" width="12" height="16" fill="#e8c89a" opacity="0.78"/><rect x="1476" y="499" width="12" height="16" fill="#e8c89a" opacity="0.41"/><rect x="1476" y="585" width="12" height="16" fill="#e8c89a" opacity="0.67"/><rect x="1476" y="715" width="12" height="16" fill="#e8c89a" opacity="0.71"/><rect x="1476" y="844" width="12" height="16" fill="#e8c89a" opacity="0.59"/><rect x="1517" y="283" width="12" height="16" fill="#e8c89a" opacity="0.43"/><rect x="1517" y="326" width="12" height="16" fill="#e8c89a" opacity="0.31"/><rect x="1517" y="585" width="12" height="16" fill="#e8c89a" opacity="0.45"/><rect x="1517" y="629" width="12" height="16" fill="#e8c89a" opacity="0.66"/><rect x="1517" y="715" width="12" height="16" fill="#e8c89a" opacity="0.35"/><rect x="1517" y="758" width="12" height="16" fill="#e8c89a" opacity="0.59"/><rect x="1579" y="324" width="111" height="886" fill="#141d1b" opacity="1"/><rect x="1591" y="385" width="12" height="16" fill="#e8c89a" opacity="0.63"/><rect x="1591" y="476" width="12" height="16" fill="#e8c89a" opacity="0.42"/><rect x="1591" y="612" width="12" height="16" fill="#e8c89a" opacity="0.65"/><rect x="1591" y="657" width="12" height="16" fill="#e8c89a" opacity="0.38"/><rect x="1591" y="748" width="12" height="16" fill="#e8c89a" opacity="0.47"/><rect x="1591" y="838" width="12" height="16" fill="#e8c89a" opacity="0.40"/><rect x="1635" y="385" width="12" height="16" fill="#e8c89a" opacity="0.80"/><rect x="1635" y="521" width="12" height="16" fill="#e8c89a" opacity="0.42"/><rect x="1635" y="612" width="12" height="16" fill="#e8c89a" opacity="0.67"/><rect x="1635" y="657" width="12" height="16" fill="#e8c89a" opacity="0.45"/><rect x="1635" y="702" width="12" height="16" fill="#e8c89a" opacity="0.41"/><rect x="1635" y="793" width="12" height="16" fill="#e8c89a" opacity="0.79"/><rect x="1748" y="674" width="258" height="536" fill="#141d1b" opacity="1"/><rect x="1760" y="852" width="12" height="16" fill="#e8c89a" opacity="0.80"/><rect x="1760" y="933" width="12" height="16" fill="#e8c89a" opacity="0.33"/><rect x="1799" y="731" width="12" height="16" fill="#e8c89a" opacity="0.69"/><rect x="1799" y="812" width="12" height="16" fill="#e8c89a" opacity="0.59"/><rect x="1838" y="771" width="12" height="16" fill="#e8c89a" opacity="0.71"/><rect x="1838" y="852" width="12" height="16" fill="#e8c89a" opacity="0.68"/><rect x="1838" y="933" width="12" height="16" fill="#e8c89a" opacity="0.41"/><rect x="1877" y="731" width="12" height="16" fill="#e8c89a" opacity="0.56"/><rect x="1877" y="771" width="12" height="16" fill="#e8c89a" opacity="0.70"/><rect x="1877" y="812" width="12" height="16" fill="#e8c89a" opacity="0.45"/><rect x="1877" y="852" width="12" height="16" fill="#e8c89a" opacity="0.68"/><rect x="1916" y="690" width="12" height="16" fill="#e8c89a" opacity="0.77"/><rect x="1916" y="731" width="12" height="16" fill="#e8c89a" opacity="0.52"/><rect x="1916" y="771" width="12" height="16" fill="#e8c89a" opacity="0.61"/><rect x="1916" y="812" width="12" height="16" fill="#e8c89a" opacity="0.55"/><rect x="1955" y="731" width="12" height="16" fill="#e8c89a" opacity="0.67"/><rect x="1955" y="812" width="12" height="16" fill="#e8c89a" opacity="0.26"/><rect x="1955" y="933" width="12" height="16" fill="#e8c89a" opacity="0.31"/><rect x="1922" y="213" width="179" height="997" fill="#141d1b" opacity="1"/><rect x="1934" y="229" width="12" height="16" fill="#e8c89a" opacity="0.73"/><rect x="1934" y="317" width="12" height="16" fill="#e8c89a" opacity="0.52"/><rect x="1934" y="360" width="12" height="16" fill="#e8c89a" opacity="0.31"/><rect x="1934" y="404" width="12" height="16" fill="#e8c89a" opacity="0.64"/><rect x="1934" y="492" width="12" height="16" fill="#e8c89a" opacity="0.29"/><rect x="1934" y="580" width="12" height="16" fill="#e8c89a" opacity="0.51"/><rect x="1934" y="623" width="12" height="16" fill="#e8c89a" opacity="0.29"/><rect x="1934" y="711" width="12" height="16" fill="#e8c89a" opacity="0.65"/><rect x="1934" y="799" width="12" height="16" fill="#e8c89a" opacity="0.51"/><rect x="1973" y="229" width="12" height="16" fill="#e8c89a" opacity="0.62"/><rect x="1973" y="273" width="12" height="16" fill="#e8c89a" opacity="0.45"/><rect x="1973" y="360" width="12" height="16" fill="#e8c89a" opacity="0.43"/><rect x="1973" y="536" width="12" height="16" fill="#e8c89a" opacity="0.44"/><rect x="1973" y="667" width="12" height="16" fill="#e8c89a" opacity="0.49"/><rect x="1973" y="799" width="12" height="16" fill="#e8c89a" opacity="0.78"/><rect x="1973" y="886" width="12" height="16" fill="#e8c89a" opacity="0.73"/><rect x="2012" y="317" width="12" height="16" fill="#e8c89a" opacity="0.41"/><rect x="2012" y="404" width="12" height="16" fill="#e8c89a" opacity="0.50"/><rect x="2012" y="448" width="12" height="16" fill="#e8c89a" opacity="0.51"/><rect x="2012" y="580" width="12" height="16" fill="#e8c89a" opacity="0.62"/><rect x="2012" y="623" width="12" height="16" fill="#e8c89a" opacity="0.81"/><rect x="2012" y="711" width="12" height="16" fill="#e8c89a" opacity="0.29"/><rect x="2012" y="799" width="12" height="16" fill="#e8c89a" opacity="0.59"/><rect x="2012" y="843" width="12" height="16" fill="#e8c89a" opacity="0.57"/><rect x="2012" y="886" width="12" height="16" fill="#e8c89a" opacity="0.45"/><rect x="2050" y="229" width="12" height="16" fill="#e8c89a" opacity="0.64"/><rect x="2050" y="273" width="12" height="16" fill="#e8c89a" opacity="0.58"/><rect x="2050" y="317" width="12" height="16" fill="#e8c89a" opacity="0.83"/><rect x="2050" y="360" width="12" height="16" fill="#e8c89a" opacity="0.27"/><rect x="2050" y="448" width="12" height="16" fill="#e8c89a" opacity="0.50"/><rect x="2050" y="536" width="12" height="16" fill="#e8c89a" opacity="0.61"/><rect x="2050" y="580" width="12" height="16" fill="#e8c89a" opacity="0.80"/><rect x="2050" y="711" width="12" height="16" fill="#e8c89a" opacity="0.60"/><rect x="2050" y="843" width="12" height="16" fill="#e8c89a" opacity="0.47"/><rect x="2050" y="930" width="12" height="16" fill="#e8c89a" opacity="0.73"/><rect x="2169" y="663" width="161" height="547" fill="#141d1b" opacity="1"/><rect x="2181" y="679" width="12" height="16" fill="#e8c89a" opacity="0.57"/><rect x="2181" y="763" width="12" height="16" fill="#e8c89a" opacity="0.49"/><rect x="2181" y="848" width="12" height="16" fill="#e8c89a" opacity="0.30"/><rect x="2181" y="932" width="12" height="16" fill="#e8c89a" opacity="0.43"/><rect x="2215" y="679" width="12" height="16" fill="#e8c89a" opacity="0.26"/><rect x="2215" y="763" width="12" height="16" fill="#e8c89a" opacity="0.59"/><rect x="2215" y="848" width="12" height="16" fill="#e8c89a" opacity="0.29"/><rect x="2215" y="932" width="12" height="16" fill="#e8c89a" opacity="0.71"/><rect x="2250" y="721" width="12" height="16" fill="#e8c89a" opacity="0.48"/><rect x="2250" y="763" width="12" height="16" fill="#e8c89a" opacity="0.28"/><rect x="2250" y="848" width="12" height="16" fill="#e8c89a" opacity="0.48"/><rect x="2284" y="679" width="12" height="16" fill="#e8c89a" opacity="0.82"/><rect x="2284" y="721" width="12" height="16" fill="#e8c89a" opacity="0.79"/><rect x="2284" y="763" width="12" height="16" fill="#e8c89a" opacity="0.47"/><rect x="2344" y="340" width="248" height="870" fill="#141d1b" opacity="1"/><rect x="2356" y="356" width="12" height="16" fill="#e8c89a" opacity="0.45"/><rect x="2356" y="400" width="12" height="16" fill="#e8c89a" opacity="0.79"/><rect x="2356" y="665" width="12" height="16" fill="#e8c89a" opacity="0.84"/><rect x="2356" y="753" width="12" height="16" fill="#e8c89a" opacity="0.83"/><rect x="2356" y="797" width="12" height="16" fill="#e8c89a" opacity="0.45"/><rect x="2401" y="356" width="12" height="16" fill="#e8c89a" opacity="0.66"/><rect x="2401" y="533" width="12" height="16" fill="#e8c89a" opacity="0.46"/><rect x="2401" y="797" width="12" height="16" fill="#e8c89a" opacity="0.49"/><rect x="2401" y="842" width="12" height="16" fill="#e8c89a" opacity="0.52"/><rect x="2401" y="886" width="12" height="16" fill="#e8c89a" opacity="0.79"/><rect x="2401" y="930" width="12" height="16" fill="#e8c89a" opacity="0.73"/><rect x="2446" y="400" width="12" height="16" fill="#e8c89a" opacity="0.77"/><rect x="2446" y="444" width="12" height="16" fill="#e8c89a" opacity="0.26"/><rect x="2446" y="488" width="12" height="16" fill="#e8c89a" opacity="0.68"/><rect x="2446" y="665" width="12" height="16" fill="#e8c89a" opacity="0.70"/><rect x="2446" y="709" width="12" height="16" fill="#e8c89a" opacity="0.77"/><rect x="2446" y="842" width="12" height="16" fill="#e8c89a" opacity="0.71"/><rect x="2490" y="356" width="12" height="16" fill="#e8c89a" opacity="0.33"/><rect x="2490" y="444" width="12" height="16" fill="#e8c89a" opacity="0.28"/><rect x="2490" y="533" width="12" height="16" fill="#e8c89a" opacity="0.55"/><rect x="2490" y="709" width="12" height="16" fill="#e8c89a" opacity="0.75"/><rect x="2535" y="709" width="12" height="16" fill="#e8c89a" opacity="0.55"/><rect x="2535" y="930" width="12" height="16" fill="#e8c89a" opacity="0.72"/>
<rect x="0" y="670" width="2400" height="320" fill="url(#haze2)"/>
<rect x="0" y="990" width="2400" height="210" fill="url(#wtr)"/>
<rect x="373" y="1028" width="231" height="3" rx="2" fill="#e8c89a" opacity="0.15"/><rect x="1339" y="1098" width="156" height="3" rx="2" fill="#e8c89a" opacity="0.05"/><rect x="1262" y="1142" width="154" height="3" rx="2" fill="#e8c89a" opacity="0.07"/><rect x="934" y="1093" width="187" height="3" rx="2" fill="#e8c89a" opacity="0.08"/><rect x="2019" y="1109" width="133" height="3" rx="2" fill="#e8c89a" opacity="0.08"/><rect x="1363" y="1141" width="72" height="3" rx="2" fill="#e8c89a" opacity="0.20"/><rect x="448" y="1178" width="143" height="3" rx="2" fill="#e8c89a" opacity="0.11"/><rect x="1615" y="1139" width="135" height="3" rx="2" fill="#e8c89a" opacity="0.13"/><rect x="1365" y="1082" width="165" height="3" rx="2" fill="#e8c89a" opacity="0.13"/><rect x="2396" y="1100" width="140" height="3" rx="2" fill="#e8c89a" opacity="0.13"/><rect x="416" y="1021" width="63" height="3" rx="2" fill="#e8c89a" opacity="0.20"/><rect x="884" y="1152" width="86" height="3" rx="2" fill="#e8c89a" opacity="0.12"/><rect x="699" y="1090" width="164" height="3" rx="2" fill="#e8c89a" opacity="0.17"/><rect x="1304" y="1135" width="114" height="3" rx="2" fill="#e8c89a" opacity="0.11"/><rect x="348" y="1161" width="143" height="3" rx="2" fill="#e8c89a" opacity="0.21"/><rect x="603" y="1180" width="171" height="3" rx="2" fill="#e8c89a" opacity="0.16"/><rect x="1918" y="1047" width="154" height="3" rx="2" fill="#e8c89a" opacity="0.18"/><rect x="690" y="1090" width="162" height="3" rx="2" fill="#e8c89a" opacity="0.13"/><rect x="1189" y="1161" width="189" height="3" rx="2" fill="#e8c89a" opacity="0.19"/><rect x="457" y="1020" width="148" height="3" rx="2" fill="#e8c89a" opacity="0.14"/><rect x="1196" y="1018" width="106" height="3" rx="2" fill="#e8c89a" opacity="0.10"/><rect x="485" y="1178" width="60" height="3" rx="2" fill="#e8c89a" opacity="0.08"/><rect x="2146" y="1029" width="80" height="3" rx="2" fill="#e8c89a" opacity="0.11"/><rect x="1544" y="1170" width="115" height="3" rx="2" fill="#e8c89a" opacity="0.16"/><rect x="311" y="1025" width="193" height="3" rx="2" fill="#e8c89a" opacity="0.06"/><rect x="2275" y="1123" width="178" height="3" rx="2" fill="#e8c89a" opacity="0.20"/><rect x="1541" y="1170" width="204" height="3" rx="2" fill="#e8c89a" opacity="0.21"/><rect x="148" y="1163" width="165" height="3" rx="2" fill="#e8c89a" opacity="0.10"/><rect x="2161" y="1185" width="167" height="3" rx="2" fill="#e8c89a" opacity="0.21"/><rect x="1982" y="1010" width="132" height="3" rx="2" fill="#e8c89a" opacity="0.06"/><rect x="1840" y="1121" width="187" height="3" rx="2" fill="#e8c89a" opacity="0.10"/><rect x="501" y="1102" width="189" height="3" rx="2" fill="#e8c89a" opacity="0.15"/><rect x="1792" y="1113" width="62" height="3" rx="2" fill="#e8c89a" opacity="0.12"/><rect x="1044" y="1032" width="228" height="3" rx="2" fill="#e8c89a" opacity="0.08"/><rect x="1484" y="1137" width="188" height="3" rx="2" fill="#e8c89a" opacity="0.09"/><rect x="2358" y="1145" width="67" height="3" rx="2" fill="#e8c89a" opacity="0.09"/><rect x="1385" y="1182" width="125" height="3" rx="2" fill="#e8c89a" opacity="0.12"/><rect x="538" y="1001" width="234" height="3" rx="2" fill="#e8c89a" opacity="0.18"/><rect x="240" y="1115" width="232" height="3" rx="2" fill="#e8c89a" opacity="0.17"/><rect x="1479" y="1106" width="74" height="3" rx="2" fill="#e8c89a" opacity="0.20"/>
</svg>