<svg xmlns="http://www.w3.org/2000/svg" viewBox="0 0 1200 800" width="1200" height="800" role="img">
<defs>
<linearGradient id="sky" x1="0" y1="0" x2="0" y2="1"><stop offset="0" stop-color="#e0cfc2"/><stop offset="0.62" stop-color="#fbf3e9"/><stop offset="1" stop-color="#fbf3e9"/></linearGradient>
<radialGradient id="glow" cx="50%" cy="50%" r="50%"><stop offset="0" stop-color="#eeb787" stop-opacity="0.95"/><stop offset="0.45" stop-color="#eeb787" stop-opacity="0.32"/><stop offset="1" stop-color="#eeb787" stop-opacity="0"/></radialGradient>
<linearGradient id="haze" x1="0" y1="0" x2="0" y2="1"><stop offset="0" stop-color="#fbf3e9" stop-opacity="0"/><stop offset="1" stop-color="#fbf3e9" stop-opacity="0.78"/></linearGradient>
<linearGradient id="street" x1="0" y1="0" x2="0" y2="1"><stop offset="0" stop-color="#9d8b7c"/><stop offset="1" stop-color="#68574a" stop-opacity="0.9"/></linearGradient>
<radialGradient id="vig" cx="50%" cy="46%" r="72%"><stop offset="0.55" stop-color="#16181a" stop-opacity="0"/><stop offset="1" stop-color="#16181a" stop-opacity="0.24"/></radialGradient>
<linearGradient id="warm" x1="0" y1="0" x2="1" y2="0.4"><stop offset="0" stop-color="#eeb787" stop-opacity="0.18"/><stop offset="1" stop-color="#eeb787" stop-opacity="0"/></linearGradient>
</defs>
<rect width="1200" height="800" fill="url(#sky)"/>
<circle cx="477" cy="179" r="300" fill="url(#glow)"/>
<circle cx="477" cy="179" r="52" fill="#eeb787" opacity="0.85"/>
<rect x="200" y="139" width="238" height="511" fill="#8e7969"/><rect x="228.9" y="167.5" width="25.8" height="18.5" rx="1" fill="#fdf3e6" opacity="0.39"/><rect x="228.9" y="203.2" width="25.8" height="18.5" rx="1" fill="#fdf3e6" opacity="0.41"/><rect x="228.9" y="238.8" width="25.8" height="18.5" rx="1" fill="#fdf3e6" opacity="0.52"/><rect x="228.9" y="274.4" width="25.8" height="18.5" rx="1" fill="#fdf3e6" opacity="0.42"/><rect x="228.9" y="310.0" width="25.8" height="18.5" rx="1" fill="#fdf3e6" opacity="0.40"/><rect x="228.9" y="345.6" width="25.8" height="18.5" rx="1" fill="#fdf3e6" opacity="0.50"/><rect x="228.9" y="381.2" width="25.8" height="18.5" rx="1" fill="#fdf3e6" opacity="0.46"/><rect x="228.9" y="416.9" width="25.8" height="18.5" rx="1" fill="#fdf3e6" opacity="0.47"/><rect x="228.9" y="452.5" width="25.8" height="18.5" rx="1" fill="#fdf3e6" opacity="0.56"/><rect x="228.9" y="488.1" width="25.8" height="18.5" rx="1" fill="#fdf3e6" opacity="0.56"/><rect x="228.9" y="559.3" width="25.8" height="18.5" rx="1" fill="#fdf3e6" opacity="0.56"/><rect x="228.9" y="594.9" width="25.8" height="18.5" rx="1" fill="#fdf3e6" opacity="0.48"/><rect x="280.4" y="167.5" width="25.8" height="18.5" rx="1" fill="#fdf3e6" opacity="0.47"/><rect x="280.4" y="203.2" width="25.8" height="18.5" rx="1" fill="#fdf3e6" opacity="0.46"/><rect x="280.4" y="238.8" width="25.8" height="18.5" rx="1" fill="#fdf3e6" opacity="0.61"/><rect x="280.4" y="274.4" width="25.8" height="18.5" rx="1" fill="#fdf3e6" opacity="0.51"/><rect x="280.4" y="310.0" width="25.8" height="18.5" rx="1" fill="#fdf3e6" opacity="0.55"/><rect x="280.4" y="345.6" width="25.8" height="18.5" rx="1" fill="#fdf3e6" opacity="0.59"/><rect x="280.4" y="381.2" width="25.8" height="18.5" rx="1" fill="#fdf3e6" opacity="0.50"/><rect x="280.4" y="416.9" width="25.8" height="18.5" rx="1" fill="#fdf3e6" opacity="0.60"/><rect x="280.4" y="452.5" width="25.8" height="18.5" rx="1" fill="#fdf3e6" opacity="0.52"/><rect x="280.4" y="488.1" width="25.8" height="18.5" rx="1" fill="#fdf3e6" opacity="0.60"/><rect x="280.4" y="594.9" width="25.8" height="18.5" rx="1" fill="#fdf3e6" opacity="0.48"/><rect x="331.9" y="203.2" width="25.8" height="18.5" rx="1" fill="#fdf3e6" opacity="0.55"/><rect x="331.9" y="238.8" width="25.8" height="18.5" rx="1" fill="#fdf3e6" opacity="0.40"/><rect x="331.9" y="274.4" width="25.8" height="18.5" rx="1" fill="#fdf3e6" opacity="0.57"/><rect x="331.9" y="310.0" width="25.8" height="18.5" rx="1" fill="#fdf3e6" opacity="0.42"/><rect x="331.9" y="345.6" width="25.8" height="18.5" rx="1" fill="#fdf3e6" opacity="0.48"/><rect x="331.9" y="381.2" width="25.8" height="18.5" rx="1" fill="#fdf3e6" opacity="0.58"/><rect x="331.9" y="416.9" width="25.8" height="18.5" rx="1" fill="#fdf3e6" opacity="0.45"/><rect x="331.9" y="452.5" width="25.8" height="18.5" rx="1" fill="#fdf3e6" opacity="0.41"/><rect x="331.9" y="488.1" width="25.8" height="18.5" rx="1" fill="#fdf3e6" opacity="0.54"/><rect x="331.9" y="523.7" width="25.8" height="18.5" rx="1" fill="#fdf3e6" opacity="0.62"/><rect x="331.9" y="559.3" width="25.8" height="18.5" rx="1" fill="#fdf3e6" opacity="0.60"/><rect x="331.9" y="594.9" width="25.8" height="18.5" rx="1" fill="#fdf3e6" opacity="0.44"/><rect x="383.4" y="167.5" width="25.8" height="18.5" rx="1" fill="#fdf3e6" opacity="0.41"/><rect x="383.4" y="203.2" width="25.8" height="18.5" rx="1" fill="#fdf3e6" opacity="0.59"/><rect x="383.4" y="238.8" width="25.8" height="18.5" rx="1" fill="#fdf3e6" opacity="0.53"/><rect x="383.4" y="310.0" width="25.8" height="18.5" rx="1" fill="#fdf3e6" opacity="0.50"/><rect x="383.4" y="345.6" width="25.8" height="18.5" rx="1" fill="#fdf3e6" opacity="0.43"/><rect x="383.4" y="381.2" width="25.8" height="18.5" rx="1" fill="#fdf3e6" opacity="0.59"/><rect x="383.4" y="416.9" width="25.8" height="18.5" rx="1" fill="#fdf3e6" opacity="0.52"/><rect x="383.4" y="523.7" width="25.8" height="18.5" rx="1" fill="#fdf3e6" opacity="0.49"/><rect x="383.4" y="559.3" width="25.8" height="18.5" rx="1" fill="#fdf3e6" opacity="0.54"/><rect x="383.4" y="594.9" width="25.8" height="18.5" rx="1" fill="#fdf3e6" opacity="0.50"/><rect x="192" y="123" width="254" height="18" fill="#68574a" opacity="0.8"/><rect x="462" y="120" width="255" height="530" fill="#bba694"/><rect x="489.1" y="186.0" width="22.3" height="19.3" rx="1" fill="#fdf3e6" opacity="0.61"/><rect x="489.1" y="297.2" width="22.3" height="19.3" rx="1" fill="#fdf3e6" opacity="0.61"/><rect x="489.1" y="334.3" width="22.3" height="19.3" rx="1" fill="#fdf3e6" opacity="0.42"/><rect x="489.1" y="371.4" width="22.3" height="19.3" rx="1" fill="#fdf3e6" opacity="0.46"/><rect x="489.1" y="408.4" width="22.3" height="19.3" rx="1" fill="#fdf3e6" opacity="0.52"/><rect x="489.1" y="445.5" width="22.3" height="19.3" rx="1" fill="#fdf3e6" opacity="0.52"/><rect x="489.1" y="482.6" width="22.3" height="19.3" rx="1" fill="#fdf3e6" opacity="0.45"/><rect x="489.1" y="519.7" width="22.3" height="19.3" rx="1" fill="#fdf3e6" opacity="0.60"/><rect x="489.1" y="556.7" width="22.3" height="19.3" rx="1" fill="#fdf3e6" opacity="0.47"/><rect x="489.1" y="593.8" width="22.3" height="19.3" rx="1" fill="#fdf3e6" opacity="0.49"/><rect x="533.8" y="148.9" width="22.3" height="19.3" rx="1" fill="#fdf3e6" opacity="0.49"/><rect x="533.8" y="186.0" width="22.3" height="19.3" rx="1" fill="#fdf3e6" opacity="0.61"/><rect x="533.8" y="223.1" width="22.3" height="19.3" rx="1" fill="#fdf3e6" opacity="0.58"/><rect x="533.8" y="260.1" width="22.3" height="19.3" rx="1" fill="#fdf3e6" opacity="0.41"/><rect x="533.8" y="297.2" width="22.3" height="19.3" rx="1" fill="#fdf3e6" opacity="0.49"/><rect x="533.8" y="334.3" width="22.3" height="19.3" rx="1" fill="#fdf3e6" opacity="0.47"/><rect x="533.8" y="371.4" width="22.3" height="19.3" rx="1" fill="#fdf3e6" opacity="0.56"/><rect x="533.8" y="408.4" width="22.3" height="19.3" rx="1" fill="#fdf3e6" opacity="0.46"/><rect x="533.8" y="482.6" width="22.3" height="19.3" rx="1" fill="#fdf3e6" opacity="0.60"/><rect x="533.8" y="519.7" width="22.3" height="19.3" rx="1" fill="#fdf3e6" opacity="0.61"/><rect x="533.8" y="556.7" width="22.3" height="19.3" rx="1" fill="#fdf3e6" opacity="0.54"/><rect x="533.8" y="593.8" width="22.3" height="19.3" rx="1" fill="#fdf3e6" opacity="0.62"/><rect x="578.4" y="148.9" width="22.3" height="19.3" rx="1" fill="#fdf3e6" opacity="0.54"/><rect x="578.4" y="186.0" width="22.3" height="19.3" rx="1" fill="#fdf3e6" opacity="0.49"/><rect x="578.4" y="223.1" width="22.3" height="19.3" rx="1" fill="#fdf3e6" opacity="0.44"/><rect x="578.4" y="260.1" width="22.3" height="19.3" rx="1" fill="#fdf3e6" opacity="0.46"/><rect x="578.4" y="297.2" width="22.3" height="19.3" rx="1" fill="#fdf3e6" opacity="0.44"/><rect x="578.4" y="334.3" width="22.3" height="19.3" rx="1" fill="#fdf3e6" opacity="0.61"/><rect x="578.4" y="371.4" width="22.3" height="19.3" rx="1" fill="#fdf3e6" opacity="0.50"/><rect x="578.4" y="408.4" width="22.3" height="19.3" rx="1" fill="#fdf3e6" opacity="0.60"/><rect x="578.4" y="445.5" width="22.3" height="19.3" rx="1" fill="#fdf3e6" opacity="0.51"/><rect x="578.4" y="519.7" width="22.3" height="19.3" rx="1" fill="#fdf3e6" opacity="0.40"/><rect x="578.4" y="593.8" width="22.3" height="19.3" rx="1" fill="#fdf3e6" opacity="0.45"/><rect x="622.9" y="186.0" width="22.3" height="19.3" rx="1" fill="#fdf3e6" opacity="0.50"/><rect x="622.9" y="223.1" width="22.3" height="19.3" rx="1" fill="#fdf3e6" opacity="0.42"/><rect x="622.9" y="260.1" width="22.3" height="19.3" rx="1" fill="#fdf3e6" opacity="0.55"/><rect x="622.9" y="297.2" width="22.3" height="19.3" rx="1" fill="#fdf3e6" opacity="0.58"/><rect x="622.9" y="334.3" width="22.3" height="19.3" rx="1" fill="#fdf3e6" opacity="0.60"/><rect x="622.9" y="371.4" width="22.3" height="19.3" rx="1" fill="#fdf3e6" opacity="0.40"/><rect x="622.9" y="408.4" width="22.3" height="19.3" rx="1" fill="#fdf3e6" opacity="0.40"/><rect x="622.9" y="445.5" width="22.3" height="19.3" rx="1" fill="#fdf3e6" opacity="0.41"/><rect x="622.9" y="482.6" width="22.3" height="19.3" rx="1" fill="#fdf3e6" opacity="0.51"/><rect x="622.9" y="519.7" width="22.3" height="19.3" rx="1" fill="#fdf3e6" opacity="0.56"/><rect x="622.9" y="593.8" width="22.3" height="19.3" rx="1" fill="#fdf3e6" opacity="0.41"/><rect x="667.5" y="148.9" width="22.3" height="19.3" rx="1" fill="#fdf3e6" opacity="0.40"/><rect x="667.5" y="223.1" width="22.3" height="19.3" rx="1" fill="#fdf3e6" opacity="0.54"/><rect x="667.5" y="260.1" width="22.3" height="19.3" rx="1" fill="#fdf3e6" opacity="0.61"/><rect x="667.5" y="334.3" width="22.3" height="19.3" rx="1" fill="#fdf3e6" opacity="0.49"/><rect x="667.5" y="371.4" width="22.3" height="19.3" rx="1" fill="#fdf3e6" opacity="0.49"/><rect x="667.5" y="408.4" width="22.3" height="19.3" rx="1" fill="#fdf3e6" opacity="0.60"/><rect x="667.5" y="445.5" width="22.3" height="19.3" rx="1" fill="#fdf3e6" opacity="0.59"/><rect x="667.5" y="482.6" width="22.3" height="19.3" rx="1" fill="#fdf3e6" opacity="0.60"/><rect x="667.5" y="519.7" width="22.3" height="19.3" rx="1" fill="#fdf3e6" opacity="0.46"/><rect x="667.5" y="556.7" width="22.3" height="19.3" rx="1" fill="#fdf3e6" opacity="0.45"/><rect x="667.5" y="593.8" width="22.3" height="19.3" rx="1" fill="#fdf3e6" opacity="0.54"/><rect x="454" y="104" width="271" height="18" fill="#68574a" opacity="0.8"/><rect x="741" y="78" width="236" height="572" fill="#8e7969"/><rect x="769.8" y="144.4" width="25.5" height="19.5" rx="1" fill="#fdf3e6" opacity="0.53"/><rect x="769.8" y="219.3" width="25.5" height="19.5" rx="1" fill="#fdf3e6" opacity="0.45"/><rect x="769.8" y="256.7" width="25.5" height="19.5" rx="1" fill="#fdf3e6" opacity="0.52"/><rect x="769.8" y="294.1" width="25.5" height="19.5" rx="1" fill="#fdf3e6" opacity="0.45"/><rect x="769.8" y="331.6" width="25.5" height="19.5" rx="1" fill="#fdf3e6" opacity="0.40"/><rect x="769.8" y="369.0" width="25.5" height="19.5" rx="1" fill="#fdf3e6" opacity="0.43"/><rect x="769.8" y="406.4" width="25.5" height="19.5" rx="1" fill="#fdf3e6" opacity="0.43"/><rect x="769.8" y="443.8" width="25.5" height="19.5" rx="1" fill="#fdf3e6" opacity="0.59"/><rect x="769.8" y="481.3" width="25.5" height="19.5" rx="1" fill="#fdf3e6" opacity="0.55"/><rect x="769.8" y="518.7" width="25.5" height="19.5" rx="1" fill="#fdf3e6" opacity="0.46"/><rect x="769.8" y="556.1" width="25.5" height="19.5" rx="1" fill="#fdf3e6" opacity="0.39"/><rect x="820.8" y="107.0" width="25.5" height="19.5" rx="1" fill="#fdf3e6" opacity="0.47"/><rect x="820.8" y="144.4" width="25.5" height="19.5" rx="1" fill="#fdf3e6" opacity="0.54"/><rect x="820.8" y="181.8" width="25.5" height="19.5" rx="1" fill="#fdf3e6" opacity="0.48"/><rect x="820.8" y="294.1" width="25.5" height="19.5" rx="1" fill="#fdf3e6" opacity="0.44"/><rect x="820.8" y="406.4" width="25.5" height="19.5" rx="1" fill="#fdf3e6" opacity="0.40"/><rect x="820.8" y="443.8" width="25.5" height="19.5" rx="1" fill="#fdf3e6" opacity="0.52"/><rect x="820.8" y="481.3" width="25.5" height="19.5" rx="1" fill="#fdf3e6" opacity="0.41"/><rect x="820.8" y="518.7" width="25.5" height="19.5" rx="1" fill="#fdf3e6" opacity="0.50"/><rect x="820.8" y="556.1" width="25.5" height="19.5" rx="1" fill="#fdf3e6" opacity="0.57"/><rect x="820.8" y="593.6" width="25.5" height="19.5" rx="1" fill="#fdf3e6" opacity="0.43"/><rect x="871.8" y="107.0" width="25.5" height="19.5" rx="1" fill="#fdf3e6" opacity="0.48"/><rect x="871.8" y="144.4" width="25.5" height="19.5" rx="1" fill="#fdf3e6" opacity="0.52"/><rect x="871.8" y="181.8" width="25.5" height="19.5" rx="1" fill="#fdf3e6" opacity="0.56"/><rect x="871.8" y="256.7" width="25.5" height="19.5" rx="1" fill="#fdf3e6" opacity="0.57"/><rect x="871.8" y="294.1" width="25.5" height="19.5" rx="1" fill="#fdf3e6" opacity="0.44"/><rect x="871.8" y="331.6" width="25.5" height="19.5" rx="1" fill="#fdf3e6" opacity="0.44"/><rect x="871.8" y="369.0" width="25.5" height="19.5" rx="1" fill="#fdf3e6" opacity="0.39"/><rect x="871.8" y="406.4" width="25.5" height="19.5" rx="1" fill="#fdf3e6" opacity="0.55"/><rect x="871.8" y="443.8" width="25.5" height="19.5" rx="1" fill="#fdf3e6" opacity="0.59"/><rect x="871.8" y="481.3" width="25.5" height="19.5" rx="1" fill="#fdf3e6" opacity="0.51"/><rect x="871.8" y="518.7" width="25.5" height="19.5" rx="1" fill="#fdf3e6" opacity="0.59"/><rect x="871.8" y="556.1" width="25.5" height="19.5" rx="1" fill="#fdf3e6" opacity="0.44"/><rect x="871.8" y="593.6" width="25.5" height="19.5" rx="1" fill="#fdf3e6" opacity="0.51"/><rect x="922.8" y="107.0" width="25.5" height="19.5" rx="1" fill="#fdf3e6" opacity="0.60"/><rect x="922.8" y="181.8" width="25.5" height="19.5" rx="1" fill="#fdf3e6" opacity="0.57"/><rect x="922.8" y="219.3" width="25.5" height="19.5" rx="1" fill="#fdf3e6" opacity="0.42"/><rect x="922.8" y="256.7" width="25.5" height="19.5" rx="1" fill="#fdf3e6" opacity="0.43"/><rect x="922.8" y="294.1" width="25.5" height="19.5" rx="1" fill="#fdf3e6" opacity="0.47"/><rect x="922.8" y="331.6" width="25.5" height="19.5" rx="1" fill="#fdf3e6" opacity="0.57"/><rect x="922.8" y="406.4" width="25.5" height="19.5" rx="1" fill="#fdf3e6" opacity="0.52"/><rect x="922.8" y="443.8" width="25.5" height="19.5" rx="1" fill="#fdf3e6" opacity="0.40"/><rect x="922.8" y="481.3" width="25.5" height="19.5" rx="1" fill="#fdf3e6" opacity="0.47"/><rect x="922.8" y="518.7" width="25.5" height="19.5" rx="1" fill="#fdf3e6" opacity="0.40"/><rect x="922.8" y="556.1" width="25.5" height="19.5" rx="1" fill="#fdf3e6" opacity="0.39"/><rect x="922.8" y="593.6" width="25.5" height="19.5" rx="1" fill="#fdf3e6" opacity="0.39"/><rect x="733" y="62" width="252" height="18" fill="#68574a" opacity="0.8"/><rect x="1001" y="296" width="282" height="354" fill="#bba694"/><rect x="1029.5" y="324.2" width="25.0" height="17.7" rx="1" fill="#fdf3e6" opacity="0.58"/><rect x="1029.5" y="358.2" width="25.0" height="17.7" rx="1" fill="#fdf3e6" opacity="0.40"/><rect x="1029.5" y="392.2" width="25.0" height="17.7" rx="1" fill="#fdf3e6" opacity="0.46"/><rect x="1029.5" y="426.2" width="25.0" height="17.7" rx="1" fill="#fdf3e6" opacity="0.61"/><rect x="1029.5" y="494.2" width="25.0" height="17.7" rx="1" fill="#fdf3e6" opacity="0.48"/><rect x="1029.5" y="562.2" width="25.0" height="17.7" rx="1" fill="#fdf3e6" opacity="0.38"/><rect x="1029.5" y="596.2" width="25.0" height="17.7" rx="1" fill="#fdf3e6" opacity="0.43"/><rect x="1079.5" y="358.2" width="25.0" height="17.7" rx="1" fill="#fdf3e6" opacity="0.46"/><rect x="1079.5" y="392.2" width="25.0" height="17.7" rx="1" fill="#fdf3e6" opacity="0.40"/><rect x="1079.5" y="426.2" width="25.0" height="17.7" rx="1" fill="#fdf3e6" opacity="0.47"/><rect x="1079.5" y="460.2" width="25.0" height="17.7" rx="1" fill="#fdf3e6" opacity="0.59"/><rect x="1079.5" y="494.2" width="25.0" height="17.7" rx="1" fill="#fdf3e6" opacity="0.45"/><rect x="1079.5" y="528.2" width="25.0" height="17.7" rx="1" fill="#fdf3e6" opacity="0.42"/><rect x="1079.5" y="596.2" width="25.0" height="17.7" rx="1" fill="#fdf3e6" opacity="0.52"/><rect x="1129.5" y="324.2" width="25.0" height="17.7" rx="1" fill="#fdf3e6" opacity="0.52"/><rect x="1129.5" y="358.2" width="25.0" height="17.7" rx="1" fill="#fdf3e6" opacity="0.50"/><rect x="1129.5" y="392.2" width="25.0" height="17.7" rx="1" fill="#fdf3e6" opacity="0.43"/><rect x="1129.5" y="426.2" width="25.0" height="17.7" rx="1" fill="#fdf3e6" opacity="0.43"/><rect x="1129.5" y="460.2" width="25.0" height="17.7" rx="1" fill="#fdf3e6" opacity="0.44"/><rect x="1129.5" y="494.2" width="25.0" height="17.7" rx="1" fill="#fdf3e6" opacity="0.45"/><rect x="1129.5" y="562.2" width="25.0" height="17.7" rx="1" fill="#fdf3e6" opacity="0.51"/><rect x="1129.5" y="596.2" width="25.0" height="17.7" rx="1" fill="#fdf3e6" opacity="0.58"/><rect x="1179.5" y="324.2" width="25.0" height="17.7" rx="1" fill="#fdf3e6" opacity="0.45"/><rect x="1179.5" y="392.2" width="25.0" height="17.7" rx="1" fill="#fdf3e6" opacity="0.45"/><rect x="1179.5" y="460.2" width="25.0" height="17.7" rx="1" fill="#fdf3e6" opacity="0.42"/><rect x="1179.5" y="494.2" width="25.0" height="17.7" rx="1" fill="#fdf3e6" opacity="0.44"/><rect x="1179.5" y="528.2" width="25.0" height="17.7" rx="1" fill="#fdf3e6" opacity="0.54"/><rect x="1179.5" y="562.2" width="25.0" height="17.7" rx="1" fill="#fdf3e6" opacity="0.58"/><rect x="1179.5" y="596.2" width="25.0" height="17.7" rx="1" fill="#fdf3e6" opacity="0.52"/><rect x="1229.5" y="324.2" width="25.0" height="17.7" rx="1" fill="#fdf3e6" opacity="0.61"/><rect x="1229.5" y="358.2" width="25.0" height="17.7" rx="1" fill="#fdf3e6" opacity="0.60"/><rect x="1229.5" y="426.2" width="25.0" height="17.7" rx="1" fill="#fdf3e6" opacity="0.52"/><rect x="1229.5" y="460.2" width="25.0" height="17.7" rx="1" fill="#fdf3e6" opacity="0.61"/><rect x="1229.5" y="494.2" width="25.0" height="17.7" rx="1" fill="#fdf3e6" opacity="0.55"/><rect x="1229.5" y="562.2" width="25.0" height="17.7" rx="1" fill="#fdf3e6" opacity="0.40"/><rect x="1229.5" y="596.2" width="25.0" height="17.7" rx="1" fill="#fdf3e6" opacity="0.39"/><rect x="993" y="280" width="298" height="18" fill="#68574a" opacity="0.8"/><circle cx="140" cy="682" r="26" fill="#9d8b7c" opacity="0.55"/><circle cx="370" cy="682" r="26" fill="#9d8b7c" opacity="0.55"/><circle cx="600" cy="682" r="26" fill="#9d8b7c" opacity="0.55"/><circle cx="830" cy="682" r="26" fill="#9d8b7c" opacity="0.55"/><circle cx="1060" cy="682" r="26" fill="#9d8b7c" opacity="0.55"/>
<rect x="0" y="440" width="1200" height="210" fill="url(#haze)" opacity="0.34"/>
<rect x="0" y="650" width="1200" height="150" fill="url(#street)"/>
<rect x="0" y="650" width="1200" height="7" fill="#fdf3e6" opacity="0.28"/>
<rect x="0" y="728" width="1200" height="2" fill="#fdf3e6" opacity="0.16"/>
<path d="M1200 800 L1200 139 L1099 161 L1077 800 Z" fill="#68574a" opacity="0.5"/>
<rect width="1200" height="800" fill="url(#warm)"/>
<rect width="1200" height="800" fill="url(#vig)"/>
</svg>